<svg xmlns="http://www.w3.org/2000/svg"  viewBox="0 0 162.6 210.19">
<rect x="69.89" y="100.58" width="60.77" height="18.17" rx="3.17" />
        <rect x="69.89" y="127.94" width="60.77" height="18.17" rx="3.17" />
        <rect x="69.89" y="155.29" width="46.09" height="18.17" rx="3.17" />
        <path 
d="M146,65.15h0V45.52a27.36,27.36,0,0,0-27.36-27.35h-1.75A27.27,27.27,0,0,0,91.27,0H54.72A27.27,27.27,0,0,0,29.11,18.17H27.36A27.36,27.36,0,0,0,0,45.52V155a27.36,27.36,0,0,0,27.36,27.35H38v3.4a24.49,24.49,0,0,0,24.49,24.48h75.68a24.49,24.49,0,0,0,24.48-24.48V88.33A24.49,24.49,0,0,0,146,65.15Zm-3.75-1-.12,0ZM140.29,64l-.31,0ZM54.72,18.17H91.27a9.24,9.24,0,0,1,9.19,9.19,9.25,9.25,0,0,1-9.41,9H54.72a9.25,9.25,0,0,1-9.2-9.19A9.06,9.06,0,0,1,54.72,18.17ZM38,88.33v75.82H27.36A9.24,9.24,0,0,1,18.17,155V45.52a9.24,9.24,0,0,1,9.19-9.19h1.75A27.27,27.27,0,0,0,54.72,54.5H91.27a27.27,27.27,0,0,0,25.6-18.17h1.75a9.25,9.25,0,0,1,9.2,9.19V63.85H62.44A24.49,24.49,0,0,0,38,88.33ZM144.6,185.71a6.49,6.49,0,0,1-6.48,6.48H62.44A6.49,6.49,0,0,1,56,185.71V88.33a6.49,6.49,0,0,1,6.49-6.48h75.68a6.49,6.49,0,0,1,6.48,6.48Z" />
/></svg>