<svg xmlns="http://www.w3.org/2000/svg" fill="none" viewBox="0 0 24 24" stroke-width="1.5" stroke="currentColor" aria-hidden="true">
<path stroke-linecap="round" stroke-linejoin="round" d="M19,5.3c2,2.4,2.7,5.4,1.6,8.2c-1.4,4.3-6.4,6.6-10.9,5.2c-2.3-0.8-4.1-2.3-5.1-4.4c-0.9-2-1.1-4.3-0.4-6.4
	C5.2,5.1,7.5,3,10.5,2.4L11,1.7C7,2,3.5,4.8,2.2,8.7c-0.9,2.6-0.8,5.4,0.5,7.9s3.3,4.4,6,5.2c2.6,0.9,5.4,0.8,7.9-0.6
	c2.5-1.2,4.4-3.3,5.2-6C23,11.3,22,7.2,18.9,4.4L19,5.3z"/>
<path stroke-linecap="round" stroke-linejoin="round" d="M10.1,10.6c0.2,0.9,0.8,1.6,1.8,2c0.7,0.2,1.7,0.3,2.6-0.6c0.8-0.8,0.8-2,0.8-2.1l-0.1-3.2L15,4.9V3.1
	c0,0,0,0.1-0.1,0.1l-1,1.3l-1.1,1.4l-2,2.6C10.7,8.5,9.9,9.5,10.1,10.6z"/>
</svg>
