<?xml version="1.0" standalone="no"?>
<!DOCTYPE svg PUBLIC "-//W3C//DTD SVG 20010904//EN"
 "http://www.w3.org/TR/2001/REC-SVG-20010904/DTD/svg10.dtd">
<svg version="1.0" xmlns="http://www.w3.org/2000/svg"
 width="700.000000pt" height="700.000000pt" viewBox="0 0 700.000000 700.000000"
 preserveAspectRatio="xMidYMid meet">
<metadata>
Created by potrace 1.14, written by Peter Selinger 2001-2017
</metadata>
<g transform="translate(0.000000,700.000000) scale(0.100000,-0.100000)"
fill="#000000" stroke="none">
<path d="M2470 6107 c-3 -3 -36 -7 -75 -11 -187 -17 -422 -71 -615 -143 -688
-254 -1249 -776 -1549 -1442 -67 -149 -103 -257 -139 -426 -37 -166 -46 -223
-59 -365 -14 -147 -7 -460 13 -576 26 -153 30 -174 54 -266 41 -157 131 -389
190 -488 5 -8 41 -71 81 -140 157 -272 306 -469 513 -675 255 -254 534 -438
831 -550 111 -41 290 -89 375 -100 30 -4 57 -8 60 -10 3 -2 29 -6 59 -10 30
-4 62 -8 72 -10 42 -8 214 -18 329 -18 195 -1 323 11 550 49 157 27 431 115
620 201 88 40 88 40 27 97 -69 64 -254 236 -277 256 -18 16 -111 101 -344 315
-54 50 -110 101 -125 114 -14 13 -52 48 -84 78 -38 34 -65 52 -75 49 -76 -23
-253 -28 -352 -11 -84 15 -140 26 -155 29 -5 2 -23 6 -40 10 -16 4 -86 26
-155 48 -271 86 -488 219 -659 402 -25 27 -54 58 -65 69 -44 46 -153 219 -196
312 -96 203 -129 346 -135 575 -2 91 0 190 5 220 5 30 12 70 15 87 3 18 9 52
14 75 6 24 12 54 14 68 21 109 115 318 194 428 134 188 345 357 596 477 181
86 334 124 518 131 163 5 254 -5 424 -51 50 -13 117 -29 150 -35 188 -37 401
-138 560 -264 81 -64 213 -205 268 -286 74 -110 164 -301 181 -385 11 -55 28
-66 102 -70 l42 -3 376 377 c324 325 377 382 382 412 6 37 -11 74 -134 279
-114 189 -333 443 -510 591 -349 290 -841 501 -1317 564 -27 4 -61 9 -75 12
-31 6 -474 15 -480 10z"/>
<path d="M5215 3975 l-912 -912 -33 36 c-18 20 -53 59 -79 86 -25 28 -87 95
-136 150 -50 55 -101 112 -115 126 -14 14 -41 44 -60 65 -19 22 -96 107 -172
190 l-137 150 -70 -1 c-60 -1 -75 -5 -97 -26 -70 -66 -746 -746 -754 -758 -5
-9 -3 -24 5 -40 8 -14 364 -376 792 -803 758 -757 779 -776 818 -778 81 -4
112 0 131 18 11 9 60 53 109 97 50 44 110 98 135 121 119 109 160 145 215 195
33 29 65 58 71 63 6 6 46 43 89 81 43 39 508 499 1032 1023 l953 953 0 72 0
72 -365 365 -364 365 -72 1 -72 1 -912 -912z"/>
</g>
</svg>
