<?xml version="1.0" standalone="no"?>
<!DOCTYPE svg PUBLIC "-//W3C//DTD SVG 20010904//EN"
 "http://www.w3.org/TR/2001/REC-SVG-20010904/DTD/svg10.dtd">
<svg version="1.0" xmlns="http://www.w3.org/2000/svg"
 width="700.000000pt" height="700.000000pt" viewBox="0 0 700.000000 700.000000"
 preserveAspectRatio="xMidYMid meet">
<metadata>
Created by potrace 1.14, written by Peter Selinger 2001-2017
</metadata>
<g transform="translate(0.000000,700.000000) scale(0.100000,-0.100000)"
fill="#000000" stroke="none">
<path d="M2459 5106 c-2 -2 -31 -7 -64 -11 -50 -5 -136 -22 -205 -39 -55 -14
-188 -63 -258 -96 -463 -217 -793 -634 -898 -1135 -47 -224 -38 -534 22 -735
9 -29 17 -62 19 -71 12 -59 90 -233 156 -344 92 -156 271 -356 414 -463 195
-145 494 -271 708 -298 23 -3 65 -9 94 -13 61 -9 283 -7 368 3 224 28 489 126
677 252 116 78 161 115 258 213 135 136 229 262 207 279 -15 11 -144 87 -257
150 -25 14 -74 42 -109 64 -34 21 -65 38 -67 38 -2 0 -32 17 -67 39 -96 59
-98 59 -143 4 -176 -216 -422 -335 -694 -336 -128 0 -163 4 -265 34 -259 76
-476 273 -577 522 -81 203 -86 433 -13 642 56 163 189 334 337 436 251 172
598 204 872 80 141 -64 276 -172 365 -293 42 -59 63 -69 94 -45 15 11 69 99
154 252 19 33 38 67 43 75 5 8 24 40 41 70 129 224 126 209 57 280 -198 202
-547 380 -833 426 -20 3 -47 8 -59 11 -26 6 -370 15 -377 9z"/>
<path d="M4550 4995 c-16 -5 -38 -19 -48 -30 -15 -15 -500 -851 -620 -1066
-40 -72 -47 -84 -58 -99 -6 -8 -25 -40 -41 -70 -16 -30 -42 -74 -56 -97 -15
-24 -27 -44 -27 -47 0 -4 -125 -219 -160 -275 -11 -19 -19 -39 -16 -46 2 -7
73 -52 158 -100 84 -49 218 -126 297 -172 79 -46 147 -81 152 -76 6 7 92 151
159 268 9 17 41 72 71 123 30 52 63 110 75 130 69 124 478 829 486 840 8 9 92
12 358 12 318 0 348 1 362 18 15 16 92 146 146 242 22 40 60 106 156 270 51
86 59 107 52 134 -3 14 -16 31 -28 37 -29 16 -1373 19 -1418 4z"/>
</g>
</svg>
